<svg width="404" height="280" viewBox="0 0 404 280" fill="none" xmlns="http://www.w3.org/2000/svg">
    <circle cx="244" cy="59" r="58" fill="url(#paint0_linear_0_1)" stroke="url(#paint1_linear_0_1)" stroke-width="2" />
    <g filter="url(#filter0_bd_0_1)">
        <mask id="path-2-inside-1_0_1" fill="white">
            <path fill-rule="evenodd" clip-rule="evenodd"
                d="M265.5 214.997C265.666 214.999 265.833 215 266 215C289.748 215 309 195.748 309 172C309 148.252 289.748 129 266 129C265.833 129 265.666 129.001 265.5 129.003V129H254.391C254.793 126.057 255 123.053 255 120C255 83.5492 225.451 54 189 54C152.549 54 123 83.5492 123 120C123 123.439 123.263 126.817 123.77 130.115C120.631 129.386 117.361 129 114 129C90.2518 129 71 148.252 71 172C71 195.748 90.2518 215 114 215C114.168 215 114.335 214.999 114.502 214.997L114.5 215H265.5V214.997Z" />
        </mask>
        <path fill-rule="evenodd" clip-rule="evenodd"
            d="M265.5 214.997C265.666 214.999 265.833 215 266 215C289.748 215 309 195.748 309 172C309 148.252 289.748 129 266 129C265.833 129 265.666 129.001 265.5 129.003V129H254.391C254.793 126.057 255 123.053 255 120C255 83.5492 225.451 54 189 54C152.549 54 123 83.5492 123 120C123 123.439 123.263 126.817 123.77 130.115C120.631 129.386 117.361 129 114 129C90.2518 129 71 148.252 71 172C71 195.748 90.2518 215 114 215C114.168 215 114.335 214.999 114.502 214.997L114.5 215H265.5V214.997Z"
            fill="url(#paint2_linear_0_1)" shape-rendering="crispEdges" />
        <path
            d="M265.5 214.997L265.523 212.997C264.988 212.991 264.474 213.199 264.094 213.575C263.714 213.951 263.5 214.463 263.5 214.997H265.5ZM265.5 129.003H263.5C263.5 129.537 263.714 130.049 264.094 130.425C264.474 130.801 264.988 131.009 265.523 131.003L265.5 129.003ZM265.5 129H267.5C267.5 127.895 266.605 127 265.5 127V129ZM254.391 129L252.41 128.73C252.332 129.302 252.505 129.88 252.885 130.315C253.265 130.75 253.814 131 254.391 131V129ZM123.77 130.115L123.318 132.063C123.964 132.213 124.643 132.033 125.13 131.582C125.617 131.13 125.848 130.467 125.747 129.811L123.77 130.115ZM114.502 214.997L116.072 216.237C116.549 215.632 116.637 214.807 116.297 214.115C115.957 213.423 115.25 212.988 114.479 212.997L114.502 214.997ZM114.5 215L112.931 213.76C112.455 214.362 112.366 215.182 112.7 215.872C113.034 216.562 113.733 217 114.5 217V215ZM265.5 215V217C266.605 217 267.5 216.105 267.5 215H265.5ZM265.477 216.997C265.651 216.999 265.825 217 266 217V213C265.841 213 265.682 212.999 265.523 212.997L265.477 216.997ZM266 217C290.853 217 311 196.853 311 172H307C307 194.644 288.644 213 266 213V217ZM311 172C311 147.147 290.853 127 266 127V131C288.644 131 307 149.356 307 172H311ZM266 127C265.826 127 265.651 127.001 265.477 127.003L265.523 131.003C265.682 131.001 265.841 131 266 131V127ZM263.5 129V129.003H267.5V129H263.5ZM254.391 131H265.5V127H254.391V131ZM256.373 129.27C256.787 126.238 257 123.143 257 120H253C253 122.962 252.799 125.876 252.41 128.73L256.373 129.27ZM257 120C257 82.4446 226.555 52 189 52V56C224.346 56 253 84.6538 253 120H257ZM189 52C151.445 52 121 82.4446 121 120H125C125 84.6538 153.654 56 189 56V52ZM121 120C121 123.542 121.271 127.021 121.793 130.419L125.747 129.811C125.255 126.614 125 123.337 125 120H121ZM124.223 128.167C120.937 127.403 117.514 127 114 127V131C117.207 131 120.326 131.368 123.318 132.063L124.223 128.167ZM114 127C89.1472 127 69 147.147 69 172H73C73 149.356 91.3563 131 114 131V127ZM69 172C69 196.853 89.1472 217 114 217V213C91.3563 213 73 194.644 73 172H69ZM114 217C114.175 217 114.35 216.999 114.525 216.997L114.479 212.997C114.32 212.999 114.16 213 114 213V217ZM116.069 216.24L116.072 216.237L112.933 213.757L112.931 213.76L116.069 216.24ZM265.5 213H114.5V217H265.5V213ZM263.5 214.997V215H267.5V214.997H263.5Z"
            fill="url(#paint3_linear_0_1)" mask="url(#path-2-inside-1_0_1)" />
    </g>
    <g filter="url(#filter1_bd_0_1)">
        <mask id="path-4-inside-2_0_1" fill="white">
            <path fill-rule="evenodd" clip-rule="evenodd"
                d="M343.563 170.351C343.683 170.352 343.804 170.353 343.924 170.353C361.087 170.353 375 156.44 375 139.277C375 122.115 361.087 108.202 343.924 108.202C343.804 108.202 343.683 108.202 343.563 108.204V108.202H335.535C335.825 106.075 335.975 103.904 335.975 101.697C335.975 75.3549 314.62 54 288.277 54C261.935 54 240.58 75.3549 240.58 101.697C240.58 104.183 240.77 106.624 241.136 109.007C238.868 108.48 236.504 108.202 234.076 108.202C216.913 108.202 203 122.115 203 139.277C203 156.44 216.913 170.353 234.076 170.353C234.197 170.353 234.318 170.352 234.439 170.351L234.437 170.353H343.563V170.351Z" />
        </mask>
        <path fill-rule="evenodd" clip-rule="evenodd"
            d="M343.563 170.351C343.683 170.352 343.804 170.353 343.924 170.353C361.087 170.353 375 156.44 375 139.277C375 122.115 361.087 108.202 343.924 108.202C343.804 108.202 343.683 108.202 343.563 108.204V108.202H335.535C335.825 106.075 335.975 103.904 335.975 101.697C335.975 75.3549 314.62 54 288.277 54C261.935 54 240.58 75.3549 240.58 101.697C240.58 104.183 240.77 106.624 241.136 109.007C238.868 108.48 236.504 108.202 234.076 108.202C216.913 108.202 203 122.115 203 139.277C203 156.44 216.913 170.353 234.076 170.353C234.197 170.353 234.318 170.352 234.439 170.351L234.437 170.353H343.563V170.351Z"
            fill="url(#paint4_linear_0_1)" shape-rendering="crispEdges" />
        <path
            d="M343.563 170.351L343.586 168.351C343.052 168.345 342.537 168.553 342.157 168.929C341.777 169.304 341.563 169.816 341.563 170.351H343.563ZM343.563 108.204H341.563C341.563 108.738 341.777 109.25 342.157 109.626C342.537 110.002 343.051 110.21 343.586 110.204L343.563 108.204ZM343.563 108.202H345.563C345.563 107.097 344.668 106.202 343.563 106.202V108.202ZM335.535 108.202L333.553 107.931C333.475 108.504 333.649 109.082 334.028 109.517C334.408 109.952 334.957 110.202 335.535 110.202V108.202ZM241.136 109.007L240.684 110.955C241.33 111.106 242.009 110.925 242.496 110.474C242.983 110.023 243.214 109.359 243.113 108.703L241.136 109.007ZM234.439 170.351L236.008 171.59C236.486 170.985 236.573 170.16 236.233 169.468C235.893 168.777 235.186 168.342 234.416 168.351L234.439 170.351ZM234.437 170.353L232.867 169.114C232.392 169.715 232.303 170.535 232.637 171.225C232.971 171.915 233.67 172.353 234.437 172.353V170.353ZM343.563 170.353V172.353C344.668 172.353 345.563 171.458 345.563 170.353H343.563ZM343.54 172.351C343.668 172.352 343.796 172.353 343.924 172.353V168.353C343.811 168.353 343.699 168.352 343.586 168.351L343.54 172.351ZM343.924 172.353C362.192 172.353 377 157.544 377 139.277H373C373 155.335 359.982 168.353 343.924 168.353V172.353ZM377 139.277C377 121.01 362.192 106.202 343.924 106.202V110.202C359.982 110.202 373 123.219 373 139.277H377ZM343.924 106.202C343.796 106.202 343.668 106.202 343.54 106.204L343.586 110.204C343.699 110.202 343.811 110.202 343.924 110.202V106.202ZM341.563 108.202V108.204H345.563V108.202H341.563ZM335.535 110.202H343.563V106.202H335.535V110.202ZM337.517 108.472C337.819 106.256 337.975 103.994 337.975 101.697H333.975C333.975 103.813 333.831 105.894 333.553 107.931L337.517 108.472ZM337.975 101.697C337.975 74.2503 315.724 52 288.277 52V56C313.515 56 333.975 76.4595 333.975 101.697H337.975ZM288.277 52C260.83 52 238.58 74.2503 238.58 101.697H242.58C242.58 76.4595 263.039 56 288.277 56V52ZM238.58 101.697C238.58 104.285 238.778 106.828 239.16 109.311L243.113 108.703C242.762 106.421 242.58 104.081 242.58 101.697H238.58ZM241.589 107.059C239.173 106.498 236.658 106.202 234.076 106.202V110.202C236.351 110.202 238.563 110.463 240.684 110.955L241.589 107.059ZM234.076 106.202C215.808 106.202 201 121.01 201 139.277H205C205 123.219 218.018 110.202 234.076 110.202V106.202ZM201 139.277C201 157.544 215.808 172.353 234.076 172.353V168.353C218.018 168.353 205 155.335 205 139.277H201ZM234.076 172.353C234.204 172.353 234.333 172.352 234.461 172.351L234.416 168.351C234.303 168.352 234.189 168.353 234.076 168.353V172.353ZM236.007 171.592L236.008 171.59L232.869 169.112L232.867 169.114L236.007 171.592ZM343.563 168.353H234.437V172.353H343.563V168.353ZM341.563 170.351V170.353H345.563V170.351H341.563Z"
            fill="url(#paint5_linear_0_1)" mask="url(#path-4-inside-2_0_1)" />
    </g>
    <defs>
        <filter id="filter0_bd_0_1" x="0" y="19" width="338" height="261" filterUnits="userSpaceOnUse"
            color-interpolation-filters="sRGB">
            <feFlood flood-opacity="0" result="BackgroundImageFix" />
            <feGaussianBlur in="BackgroundImageFix" stdDeviation="7" />
            <feComposite in2="SourceAlpha" operator="in" result="effect1_backgroundBlur_0_1" />
            <feColorMatrix in="SourceAlpha" type="matrix" values="0 0 0 0 0 0 0 0 0 0 0 0 0 0 0 0 0 0 127 0"
                result="hardAlpha" />
            <feOffset dx="-21" dy="15" />
            <feGaussianBlur stdDeviation="25" />
            <feComposite in2="hardAlpha" operator="out" />
            <feColorMatrix type="matrix" values="0 0 0 0 0.113725 0 0 0 0 0.14902 0 0 0 0 0.27451 0 0 0 0.25 0" />
            <feBlend mode="normal" in2="effect1_backgroundBlur_0_1" result="effect2_dropShadow_0_1" />
            <feBlend mode="normal" in="SourceGraphic" in2="effect2_dropShadow_0_1" result="shape" />
        </filter>
        <filter id="filter1_bd_0_1" x="132" y="19" width="272" height="216.353" filterUnits="userSpaceOnUse"
            color-interpolation-filters="sRGB">
            <feFlood flood-opacity="0" result="BackgroundImageFix" />
            <feGaussianBlur in="BackgroundImageFix" stdDeviation="7" />
            <feComposite in2="SourceAlpha" operator="in" result="effect1_backgroundBlur_0_1" />
            <feColorMatrix in="SourceAlpha" type="matrix" values="0 0 0 0 0 0 0 0 0 0 0 0 0 0 0 0 0 0 127 0"
                result="hardAlpha" />
            <feOffset dx="-21" dy="15" />
            <feGaussianBlur stdDeviation="25" />
            <feComposite in2="hardAlpha" operator="out" />
            <feColorMatrix type="matrix" values="0 0 0 0 0.113438 0 0 0 0 0.148981 0 0 0 0 0.275 0 0 0 0.25 0" />
            <feBlend mode="normal" in2="effect1_backgroundBlur_0_1" result="effect2_dropShadow_0_1" />
            <feBlend mode="normal" in="SourceGraphic" in2="effect2_dropShadow_0_1" result="shape" />
        </filter>
        <linearGradient id="paint0_linear_0_1" x1="244" y1="0" x2="244" y2="118" gradientUnits="userSpaceOnUse">
            <stop stop-color="#FFE600" />
            <stop offset="1" stop-color="#FF7A00" />
        </linearGradient>
        <linearGradient id="paint1_linear_0_1" x1="244" y1="0" x2="244" y2="118" gradientUnits="userSpaceOnUse">
            <stop stop-color="white" />
            <stop offset="1" stop-color="white" stop-opacity="0" />
        </linearGradient>
        <linearGradient id="paint2_linear_0_1" x1="190" y1="2.5" x2="190" y2="237.5" gradientUnits="userSpaceOnUse">
            <stop stop-color="white" />
            <stop offset="1" stop-color="white" stop-opacity="0" />
        </linearGradient>
        <linearGradient id="paint3_linear_0_1" x1="190" y1="54" x2="190" y2="215" gradientUnits="userSpaceOnUse">
            <stop stop-color="white" />
            <stop offset="1" stop-color="white" stop-opacity="0" />
        </linearGradient>
        <linearGradient id="paint4_linear_0_1" x1="297" y1="57.5" x2="297" y2="183.5" gradientUnits="userSpaceOnUse">
            <stop stop-color="white" />
            <stop offset="1" stop-color="white" stop-opacity="0" />
        </linearGradient>
        <linearGradient id="paint5_linear_0_1" x1="289" y1="54" x2="289" y2="170.353" gradientUnits="userSpaceOnUse">
            <stop stop-color="white" />
            <stop offset="1" stop-color="white" stop-opacity="0" />
        </linearGradient>
    </defs>
</svg>