<svg width="209" height="249" viewBox="0 0 209 249" fill="none" xmlns="http://www.w3.org/2000/svg">
<g filter="url(#filter0_d_1_655)">
<g filter="url(#filter1_i_1_655)">
<path fill-rule="evenodd" clip-rule="evenodd" d="M145.514 31.1744C116.097 36.9993 90.3326 56.4407 78.2388 85.5558C58.673 132.659 82.2977 187.246 131.006 207.478C135.472 209.334 139.995 210.836 144.54 211.997C126.365 215.596 106.796 213.997 88.1942 206.271C39.4859 186.038 15.8612 131.452 35.427 84.348C53.1987 41.5637 100.49 19.6688 145.514 31.1744Z" fill="url(#paint0_linear_1_655)"/>
</g>
<g filter="url(#filter2_i_1_655)">
<path fill-rule="evenodd" clip-rule="evenodd" d="M145.514 31.1744C116.097 36.9993 90.3326 56.4407 78.2388 85.5558C58.673 132.659 82.2977 187.246 131.006 207.478C135.472 209.334 139.995 210.836 144.54 211.997C126.365 215.596 106.796 213.997 88.1942 206.271C39.4859 186.038 15.8612 131.452 35.427 84.348C53.1987 41.5637 100.49 19.6688 145.514 31.1744Z" fill="url(#paint1_linear_1_655)"/>
</g>
</g>
<defs>
<filter id="filter0_d_1_655" x="8.55237" y="3.13461" width="176.962" height="245.695" filterUnits="userSpaceOnUse" color-interpolation-filters="sRGB">
<feFlood flood-opacity="0" result="BackgroundImageFix"/>
<feColorMatrix in="SourceAlpha" type="matrix" values="0 0 0 0 0 0 0 0 0 0 0 0 0 0 0 0 0 0 127 0" result="hardAlpha"/>
<feOffset dx="10" dy="5"/>
<feGaussianBlur stdDeviation="15"/>
<feColorMatrix type="matrix" values="0 0 0 0 1 0 0 0 0 1 0 0 0 0 1 0 0 0 0.3 0"/>
<feBlend mode="normal" in2="BackgroundImageFix" result="effect1_dropShadow_1_655"/>
<feBlend mode="normal" in="SourceGraphic" in2="effect1_dropShadow_1_655" result="shape"/>
</filter>
<filter id="filter1_i_1_655" x="28.5524" y="28.1346" width="116.962" height="205.695" filterUnits="userSpaceOnUse" color-interpolation-filters="sRGB">
<feFlood flood-opacity="0" result="BackgroundImageFix"/>
<feBlend mode="normal" in="SourceGraphic" in2="BackgroundImageFix" result="shape"/>
<feColorMatrix in="SourceAlpha" type="matrix" values="0 0 0 0 0 0 0 0 0 0 0 0 0 0 0 0 0 0 127 0" result="hardAlpha"/>
<feOffset dy="20"/>
<feGaussianBlur stdDeviation="32.5"/>
<feComposite in2="hardAlpha" operator="arithmetic" k2="-1" k3="1"/>
<feColorMatrix type="matrix" values="0 0 0 0 0.980392 0 0 0 0 0.423529 0 0 0 0 0.129412 0 0 0 1 0"/>
<feBlend mode="overlay" in2="shape" result="effect1_innerShadow_1_655"/>
</filter>
<filter id="filter2_i_1_655" x="28.5524" y="28.1346" width="116.962" height="205.695" filterUnits="userSpaceOnUse" color-interpolation-filters="sRGB">
<feFlood flood-opacity="0" result="BackgroundImageFix"/>
<feBlend mode="normal" in="SourceGraphic" in2="BackgroundImageFix" result="shape"/>
<feColorMatrix in="SourceAlpha" type="matrix" values="0 0 0 0 0 0 0 0 0 0 0 0 0 0 0 0 0 0 127 0" result="hardAlpha"/>
<feOffset dy="20"/>
<feGaussianBlur stdDeviation="32.5"/>
<feComposite in2="hardAlpha" operator="arithmetic" k2="-1" k3="1"/>
<feColorMatrix type="matrix" values="0 0 0 0 0.980392 0 0 0 0 0.423529 0 0 0 0 0.129412 0 0 0 1 0"/>
<feBlend mode="overlay" in2="shape" result="effect1_innerShadow_1_655"/>
</filter>
<linearGradient id="paint0_linear_1_655" x1="88.1942" y1="206.271" x2="159.048" y2="35.6932" gradientUnits="userSpaceOnUse">
<stop stop-color="#CEEE0D" stop-opacity="0.51"/>
<stop offset="1" stop-color="#DDAF2E" stop-opacity="0.36"/>
</linearGradient>
<linearGradient id="paint1_linear_1_655" x1="88.1942" y1="206.271" x2="159.048" y2="35.6932" gradientUnits="userSpaceOnUse">
<stop stop-color="#CEEE0D" stop-opacity="0.51"/>
<stop offset="1" stop-color="#DDAF2E" stop-opacity="0.36"/>
</linearGradient>
</defs>
</svg>
