<svg width="184" height="244" viewBox="0 0 184 244" fill="none" xmlns="http://www.w3.org/2000/svg">
<g filter="url(#filter0_bi_1_645)">
<path fill-rule="evenodd" clip-rule="evenodd" d="M137.093 98.5714L44.533 99.5847L44.5301 99.0906C42.5732 99.3939 40.5654 99.5623 38.5189 99.5847C17.5842 99.8141 0.52215 84.6783 0.40983 65.7781C0.29751 46.8779 17.1774 31.3704 38.1122 31.141C40.5408 31.1144 42.9173 31.2946 45.2213 31.6635C50.0879 14.3512 70.732 1.17978 95.5395 0.90807C120.317 0.636683 141.095 13.3232 146.198 30.4951C167.377 32.7242 183.695 46.7579 183.797 63.9213C183.897 80.7661 168.344 94.9389 147.773 98.0048L147.776 98.4544L143.019 98.5065C142.04 98.568 141.053 98.6046 140.057 98.6155C139.061 98.6264 138.073 98.6115 137.093 98.5714Z" fill="url(#paint0_linear_1_645)" style="mix-blend-mode:overlay"/>
</g>
<g filter="url(#filter1_bi_1_645)">
<path fill-rule="evenodd" clip-rule="evenodd" d="M137.093 98.5714L44.533 99.5847L44.5301 99.0906C42.5732 99.3939 40.5654 99.5623 38.5189 99.5847C17.5842 99.8141 0.52215 84.6783 0.40983 65.7781C0.29751 46.8779 17.1774 31.3704 38.1122 31.141C40.5408 31.1144 42.9173 31.2946 45.2213 31.6635C50.0879 14.3512 70.732 1.17978 95.5395 0.90807C120.317 0.636683 141.095 13.3232 146.198 30.4951C167.377 32.7242 183.695 46.7579 183.797 63.9213C183.897 80.7661 168.344 94.9389 147.773 98.0048L147.776 98.4544L143.019 98.5065C142.04 98.568 141.053 98.6046 140.057 98.6155C139.061 98.6264 138.073 98.6115 137.093 98.5714Z" fill="url(#paint1_linear_1_645)" style="mix-blend-mode:overlay"/>
</g>
<g filter="url(#filter2_d_1_645)">
<path fill-rule="evenodd" clip-rule="evenodd" d="M122.609 112C119.631 112 117.217 114.414 117.217 117.391V146.677C117.217 149.655 119.631 152.069 122.609 152.069C125.586 152.069 128 149.655 128 146.677V117.391C128 114.414 125.586 112 122.609 112ZM66 118.705C66 115.728 68.4138 113.314 71.3913 113.314C74.3688 113.314 76.7826 115.727 76.7826 118.705V147.991C76.7826 150.969 74.3688 153.382 71.3913 153.382C68.4138 153.382 66 150.969 66 147.991V118.705ZM90.2609 144.323C90.2609 141.345 92.6746 138.931 95.6522 138.931C98.6297 138.931 101.043 141.345 101.043 144.323V173.609C101.043 176.586 98.6297 179 95.6522 179C92.6746 179 90.2609 176.586 90.2609 173.609V144.323Z" fill="url(#paint2_linear_1_645)"/>
</g>
<defs>
<filter id="filter0_bi_1_645" x="-19.5907" y="-19.0962" width="223.388" height="138.684" filterUnits="userSpaceOnUse" color-interpolation-filters="sRGB">
<feFlood flood-opacity="0" result="BackgroundImageFix"/>
<feGaussianBlur in="BackgroundImageFix" stdDeviation="10"/>
<feComposite in2="SourceAlpha" operator="in" result="effect1_backgroundBlur_1_645"/>
<feBlend mode="normal" in="SourceGraphic" in2="effect1_backgroundBlur_1_645" result="shape"/>
<feColorMatrix in="SourceAlpha" type="matrix" values="0 0 0 0 0 0 0 0 0 0 0 0 0 0 0 0 0 0 127 0" result="hardAlpha"/>
<feOffset dy="12"/>
<feGaussianBlur stdDeviation="15"/>
<feComposite in2="hardAlpha" operator="arithmetic" k2="-1" k3="1"/>
<feColorMatrix type="matrix" values="0 0 0 0 1 0 0 0 0 1 0 0 0 0 1 0 0 0 1 0"/>
<feBlend mode="normal" in2="shape" result="effect2_innerShadow_1_645"/>
</filter>
<filter id="filter1_bi_1_645" x="-19.5907" y="-19.0962" width="223.388" height="138.684" filterUnits="userSpaceOnUse" color-interpolation-filters="sRGB">
<feFlood flood-opacity="0" result="BackgroundImageFix"/>
<feGaussianBlur in="BackgroundImageFix" stdDeviation="10"/>
<feComposite in2="SourceAlpha" operator="in" result="effect1_backgroundBlur_1_645"/>
<feBlend mode="normal" in="SourceGraphic" in2="effect1_backgroundBlur_1_645" result="shape"/>
<feColorMatrix in="SourceAlpha" type="matrix" values="0 0 0 0 0 0 0 0 0 0 0 0 0 0 0 0 0 0 127 0" result="hardAlpha"/>
<feOffset dy="12"/>
<feGaussianBlur stdDeviation="15"/>
<feComposite in2="hardAlpha" operator="arithmetic" k2="-1" k3="1"/>
<feColorMatrix type="matrix" values="0 0 0 0 1 0 0 0 0 1 0 0 0 0 1 0 0 0 1 0"/>
<feBlend mode="normal" in2="shape" result="effect2_innerShadow_1_645"/>
</filter>
<filter id="filter2_d_1_645" x="14" y="87" width="152" height="157" filterUnits="userSpaceOnUse" color-interpolation-filters="sRGB">
<feFlood flood-opacity="0" result="BackgroundImageFix"/>
<feColorMatrix in="SourceAlpha" type="matrix" values="0 0 0 0 0 0 0 0 0 0 0 0 0 0 0 0 0 0 127 0" result="hardAlpha"/>
<feOffset dx="-7" dy="20"/>
<feGaussianBlur stdDeviation="22.5"/>
<feColorMatrix type="matrix" values="0 0 0 0 0.596078 0 0 0 0 0.678431 0 0 0 0 0.768627 0 0 0 1 0"/>
<feBlend mode="normal" in2="BackgroundImageFix" result="effect1_dropShadow_1_645"/>
<feBlend mode="normal" in="SourceGraphic" in2="effect1_dropShadow_1_645" result="shape"/>
</filter>
<linearGradient id="paint0_linear_1_645" x1="91.6591" y1="0.944686" x2="92.5877" y2="99.1303" gradientUnits="userSpaceOnUse">
<stop stop-color="white" stop-opacity="0.5"/>
<stop offset="1" stop-color="#8699AD"/>
</linearGradient>
<linearGradient id="paint1_linear_1_645" x1="91.6591" y1="0.944686" x2="92.5877" y2="99.1303" gradientUnits="userSpaceOnUse">
<stop stop-color="white" stop-opacity="0.5"/>
<stop offset="1" stop-color="#8699AD"/>
</linearGradient>
<linearGradient id="paint2_linear_1_645" x1="97" y1="112" x2="97" y2="179" gradientUnits="userSpaceOnUse">
<stop stop-color="white" stop-opacity="0"/>
<stop offset="1" stop-color="white"/>
</linearGradient>
</defs>
</svg>
