<svg width="249" height="226" viewBox="0 0 249 226" fill="none" xmlns="http://www.w3.org/2000/svg">
<g id="Winter">
<path id="Union" fill-rule="evenodd" clip-rule="evenodd" d="M180.885 15.1355C180.885 6.7764 187.661 0 196.02 0C204.38 0 211.156 6.7764 211.156 15.1355V31.1331L224.195 23.4181C231.523 19.0818 240.852 21.5809 245.032 29C249.212 36.4191 246.659 45.9487 239.33 50.285L225.608 58.4044L241.29 67.6833C248.619 72.0196 251.171 81.5492 246.992 88.9683C242.812 96.3874 233.483 98.8865 226.154 94.5502L211.156 85.6756V100.864C211.156 109.224 204.38 116 196.02 116C187.661 116 180.885 109.224 180.885 100.864V84.8669L167.846 92.5819C160.518 96.9182 151.188 94.4191 147.009 87C142.829 79.5809 145.382 70.0513 152.711 65.715L165.066 58.4044L154.671 52.2534C147.342 47.9171 144.789 38.3874 148.969 30.9683C153.148 23.5492 162.477 21.0502 169.806 25.3865L180.885 31.9418V15.1355Z" fill="url(#paint0_linear_30_61)"/>
<g id="Ellipse 18" filter="url(#filter0_f_30_61)">
<ellipse cx="120.5" cy="135.5" rx="76.5" ry="46.5" fill="#A9BCDB" style="mix-blend-mode:overlay"/>
</g>
<g id="Union_2" filter="url(#filter1_bi_30_61)">
<mask id="path-3-inside-1_30_61" fill="white">
<path fill-rule="evenodd" clip-rule="evenodd" d="M191.097 134H129.991H64.1842V133.956C63.5609 133.985 62.9342 134 62.3041 134C38.9402 134 20 113.853 20 89C20 64.1472 38.9402 44 62.3041 44C66.0052 44 69.5953 44.5056 73.0166 45.4553C81.8832 21.1953 104.049 4 129.991 4C162.157 4 188.519 30.438 190.918 64.0005C190.978 64.0002 191.037 64 191.097 64C209.269 64 224 79.67 224 99C224 117.659 210.274 132.907 192.977 133.944V134H191.097Z"/>
</mask>
<path fill-rule="evenodd" clip-rule="evenodd" d="M191.097 134H129.991H64.1842V133.956C63.5609 133.985 62.9342 134 62.3041 134C38.9402 134 20 113.853 20 89C20 64.1472 38.9402 44 62.3041 44C66.0052 44 69.5953 44.5056 73.0166 45.4553C81.8832 21.1953 104.049 4 129.991 4C162.157 4 188.519 30.438 190.918 64.0005C190.978 64.0002 191.037 64 191.097 64C209.269 64 224 79.67 224 99C224 117.659 210.274 132.907 192.977 133.944V134H191.097Z" fill="url(#paint1_linear_30_61)" fill-opacity="0.5"/>
<path d="M64.1842 134H63.1842V135H64.1842V134ZM64.1842 133.956H65.1842V132.909L64.1378 132.957L64.1842 133.956ZM73.0166 45.4553L72.7491 46.4189L73.6389 46.6659L73.9559 45.7986L73.0166 45.4553ZM190.918 64.0005L189.921 64.0718L189.988 65.0058L190.924 65.0005L190.918 64.0005ZM192.977 133.944L192.917 132.946L191.977 133.002V133.944H192.977ZM192.977 134V135H193.977V134H192.977ZM191.097 133H129.991V135H191.097V133ZM129.991 133H64.1842V135H129.991V133ZM65.1842 134V133.956H63.1842V134H65.1842ZM64.1378 132.957C63.5299 132.986 62.9186 133 62.3041 133V135C62.9497 135 63.5919 134.985 64.2307 134.955L64.1378 132.957ZM62.3041 133C39.5498 133 21 113.36 21 89H19C19 114.346 38.3306 135 62.3041 135V133ZM21 89C21 64.6404 39.5498 45 62.3041 45V43C38.3306 43 19 63.654 19 89H21ZM62.3041 45C65.9137 45 69.4138 45.493 72.7491 46.4189L73.2841 44.4917C69.7768 43.5181 66.0968 43 62.3041 43V45ZM73.9559 45.7986C82.694 21.89 104.513 5 129.991 5V3C103.585 3 81.0724 20.5006 72.0774 45.112L73.9559 45.7986ZM129.991 5C161.577 5 187.554 30.9757 189.921 64.0718L191.916 63.9292C189.483 29.9003 162.737 3 129.991 3V5ZM190.924 65.0005C190.982 65.0002 191.039 65 191.097 65V63C191.035 63 190.974 63.0002 190.913 63.0005L190.924 65.0005ZM191.097 65C208.659 65 223 80.1632 223 99H225C225 79.1768 209.878 63 191.097 63V65ZM223 99C223 117.181 209.637 131.944 192.917 132.946L193.037 134.942C210.911 133.871 225 118.137 225 99H223ZM191.977 133.944V134H193.977V133.944H191.977ZM192.977 133H191.097V135H192.977V133Z" fill="white" fill-opacity="0.1" style="mix-blend-mode:overlay" mask="url(#path-3-inside-1_30_61)"/>
</g>
<path id="Union_3" fill-rule="evenodd" clip-rule="evenodd" d="M169.279 92.4926C169.279 90.5637 170.842 89 172.771 89C174.7 89 176.264 90.5637 176.264 92.4926V96.2465L179.259 94.4587C180.958 93.445 183.116 94.0231 184.081 95.75C185.045 97.4768 184.45 99.6985 182.752 100.712L179.599 102.594L183.204 104.746C184.903 105.76 185.498 107.981 184.533 109.708C183.569 111.435 181.41 112.013 179.712 110.999L176.264 108.942V112.507C176.264 114.436 174.7 116 172.771 116C170.842 116 169.279 114.436 169.279 112.507V108.754L166.283 110.541C164.585 111.555 162.426 110.977 161.462 109.25C160.497 107.523 161.092 105.301 162.791 104.288L165.629 102.594L163.243 101.17C161.545 100.157 160.95 97.935 161.914 96.2081C162.878 94.4813 165.037 93.9032 166.736 94.9168L169.279 96.4347V92.4926Z" fill="url(#paint2_linear_30_61)"/>
<path id="Union_4" fill-rule="evenodd" clip-rule="evenodd" d="M129.279 68.4926C129.279 66.5637 130.842 65 132.771 65C134.7 65 136.264 66.5637 136.264 68.4926V72.2465L139.259 70.4587C140.958 69.445 143.116 70.0231 144.081 71.75C145.045 73.4768 144.45 75.6985 142.752 76.7122L139.599 78.5941L143.204 80.746C144.903 81.7596 145.498 83.9813 144.533 85.7081C143.569 87.435 141.41 88.0131 139.712 86.9995L136.264 84.9418V88.5074C136.264 90.4363 134.7 92 132.771 92C130.842 92 129.279 90.4363 129.279 88.5074V84.7535L126.283 86.5413C124.585 87.555 122.426 86.9768 121.462 85.25C120.497 83.5231 121.092 81.3015 122.791 80.2878L125.629 78.5941L123.243 77.1703C121.545 76.1567 120.95 73.935 121.914 72.2081C122.878 70.4813 125.037 69.9032 126.736 70.9168L129.279 72.4347V68.4926Z" fill="url(#paint3_linear_30_61)"/>
<path id="Union_5" fill-rule="evenodd" clip-rule="evenodd" d="M130.279 119.493C130.279 117.564 131.842 116 133.771 116C135.7 116 137.264 117.564 137.264 119.493V123.246L140.259 121.459C141.958 120.445 144.116 121.023 145.081 122.75C146.045 124.477 145.45 126.699 143.752 127.712L140.599 129.594L144.204 131.746C145.903 132.76 146.498 134.981 145.533 136.708C144.569 138.435 142.41 139.013 140.712 137.999L137.264 135.942V139.507C137.264 141.436 135.7 143 133.771 143C131.842 143 130.279 141.436 130.279 139.507V135.754L127.283 137.541C125.585 138.555 123.426 137.977 122.462 136.25C121.497 134.523 122.092 132.301 123.791 131.288L126.629 129.594L124.243 128.17C122.545 127.157 121.95 124.935 122.914 123.208C123.878 121.481 126.037 120.903 127.736 121.917L130.279 123.435V119.493Z" fill="url(#paint4_linear_30_61)"/>
</g>
<defs>
<filter id="filter0_f_30_61" x="0" y="45" width="241" height="181" filterUnits="userSpaceOnUse" color-interpolation-filters="sRGB">
<feFlood flood-opacity="0" result="BackgroundImageFix"/>
<feBlend mode="normal" in="SourceGraphic" in2="BackgroundImageFix" result="shape"/>
<feGaussianBlur stdDeviation="22" result="effect1_foregroundBlur_30_61"/>
</filter>
<filter id="filter1_bi_30_61" x="-3" y="-19" width="250" height="176" filterUnits="userSpaceOnUse" color-interpolation-filters="sRGB">
<feFlood flood-opacity="0" result="BackgroundImageFix"/>
<feGaussianBlur in="BackgroundImageFix" stdDeviation="11.5"/>
<feComposite in2="SourceAlpha" operator="in" result="effect1_backgroundBlur_30_61"/>
<feBlend mode="normal" in="SourceGraphic" in2="effect1_backgroundBlur_30_61" result="shape"/>
<feColorMatrix in="SourceAlpha" type="matrix" values="0 0 0 0 0 0 0 0 0 0 0 0 0 0 0 0 0 0 127 0" result="hardAlpha"/>
<feOffset dy="4"/>
<feGaussianBlur stdDeviation="9"/>
<feComposite in2="hardAlpha" operator="arithmetic" k2="-1" k3="1"/>
<feColorMatrix type="matrix" values="0 0 0 0 1 0 0 0 0 1 0 0 0 0 1 0 0 0 1 0"/>
<feBlend mode="normal" in2="shape" result="effect2_innerShadow_30_61"/>
</filter>
<linearGradient id="paint0_linear_30_61" x1="196.679" y1="106.558" x2="196.679" y2="8.09303" gradientUnits="userSpaceOnUse">
<stop stop-color="#070FD5"/>
<stop offset="1" stop-color="#06CDF9"/>
</linearGradient>
<linearGradient id="paint1_linear_30_61" x1="92.3872" y1="134" x2="91.3234" y2="17.0011" gradientUnits="userSpaceOnUse">
<stop stop-color="#B8C9E3" stop-opacity="0.7"/>
<stop offset="1" stop-color="white" stop-opacity="0.9"/>
</linearGradient>
<linearGradient id="paint2_linear_30_61" x1="184.995" y1="116" x2="184.996" y2="89" gradientUnits="userSpaceOnUse">
<stop stop-color="#FFFEFE"/>
<stop offset="1" stop-color="white" stop-opacity="0"/>
</linearGradient>
<linearGradient id="paint3_linear_30_61" x1="144.995" y1="92" x2="144.996" y2="65" gradientUnits="userSpaceOnUse">
<stop stop-color="#FFFEFE"/>
<stop offset="1" stop-color="white" stop-opacity="0"/>
</linearGradient>
<linearGradient id="paint4_linear_30_61" x1="145.995" y1="143" x2="145.996" y2="116" gradientUnits="userSpaceOnUse">
<stop stop-color="#FFFEFE"/>
<stop offset="1" stop-color="white" stop-opacity="0"/>
</linearGradient>
</defs>
</svg>
