<svg width="64" height="36" viewBox="0 0 64 36" fill="none" xmlns="http://www.w3.org/2000/svg">
<g filter="url(#filter0_i_1_163)">
<ellipse cx="48.3902" cy="18" rx="15.6098" ry="18" fill="url(#paint0_linear_1_163)"/>
</g>
<g filter="url(#filter1_bi_1_163)">
<path fill-rule="evenodd" clip-rule="evenodd" d="M42.4244 35.4439L13.8866 35.8505L13.8857 35.6517C13.2768 35.7609 12.6522 35.8219 12.0156 35.831C5.47446 35.9244 0.147775 30.4929 0.118129 23.6996C0.0884835 16.9063 5.3671 11.3236 11.9083 11.2303C12.6617 11.2195 13.3991 11.2821 14.114 11.4116C15.6477 5.19777 22.0957 0.463804 29.8379 0.35338C37.5956 0.242736 44.0945 4.8106 45.6658 10.9987C52.2759 11.7934 57.3633 16.8255 57.3902 22.9891C57.4166 29.0396 52.5578 34.1388 46.1342 35.2542L46.1348 35.391L45.0052 35.4071C44.5806 35.4486 44.1503 35.4728 43.7152 35.4791C43.28 35.4853 42.8494 35.4733 42.4244 35.4439Z" fill="url(#paint1_linear_1_163)" style="mix-blend-mode:overlay"/>
</g>
<defs>
<filter id="filter0_i_1_163" x="32.7805" y="0" width="31.2195" height="56" filterUnits="userSpaceOnUse" color-interpolation-filters="sRGB">
<feFlood flood-opacity="0" result="BackgroundImageFix"/>
<feBlend mode="normal" in="SourceGraphic" in2="BackgroundImageFix" result="shape"/>
<feColorMatrix in="SourceAlpha" type="matrix" values="0 0 0 0 0 0 0 0 0 0 0 0 0 0 0 0 0 0 127 0" result="hardAlpha"/>
<feOffset dy="20"/>
<feGaussianBlur stdDeviation="32.5"/>
<feComposite in2="hardAlpha" operator="arithmetic" k2="-1" k3="1"/>
<feColorMatrix type="matrix" values="0 0 0 0 0.980392 0 0 0 0 0.423529 0 0 0 0 0.129412 0 0 0 1 0"/>
<feBlend mode="overlay" in2="shape" result="effect1_innerShadow_1_163"/>
</filter>
<filter id="filter1_bi_1_163" x="-19.882" y="-19.6486" width="97.2723" height="75.4991" filterUnits="userSpaceOnUse" color-interpolation-filters="sRGB">
<feFlood flood-opacity="0" result="BackgroundImageFix"/>
<feGaussianBlur in="BackgroundImageFix" stdDeviation="10"/>
<feComposite in2="SourceAlpha" operator="in" result="effect1_backgroundBlur_1_163"/>
<feBlend mode="normal" in="SourceGraphic" in2="effect1_backgroundBlur_1_163" result="shape"/>
<feColorMatrix in="SourceAlpha" type="matrix" values="0 0 0 0 0 0 0 0 0 0 0 0 0 0 0 0 0 0 127 0" result="hardAlpha"/>
<feOffset dy="12"/>
<feGaussianBlur stdDeviation="15"/>
<feComposite in2="hardAlpha" operator="arithmetic" k2="-1" k3="1"/>
<feColorMatrix type="matrix" values="0 0 0 0 1 0 0 0 0 1 0 0 0 0 1 0 0 0 1 0"/>
<feBlend mode="normal" in2="shape" result="effect2_innerShadow_1_163"/>
</filter>
<linearGradient id="paint0_linear_1_163" x1="48.3902" y1="0" x2="48.3902" y2="36" gradientUnits="userSpaceOnUse">
<stop stop-color="#FA6C21"/>
<stop offset="1" stop-color="#FFD358" stop-opacity="0.2"/>
</linearGradient>
<linearGradient id="paint1_linear_1_163" x1="28.6157" y1="0.366599" x2="29.0008" y2="35.6857" gradientUnits="userSpaceOnUse">
<stop stop-color="white" stop-opacity="0.5"/>
<stop offset="1" stop-color="#8699AD"/>
</linearGradient>
</defs>
</svg>
